# xmcd
#
# Track frame offsets:
#	150
#	13850
#	27671
#	43823
#	59471
#	75563
#	91728
#	104957
#	121987
#	138944
#	151809
#	172061
#	189210
#	206309
#	225894
#
# Disc length: 3223 seconds
#
# Revision: 1
# Processed by: cddbd v1.5.1PL0 Copyright (c) Steve Scherf et al.
# Submitted via: audiograbber 1.82.02
#
DISCID=bf0c950f
DTITLE=Various Artist - Nashville Sound Vol 5
DYEAR=1900
DGENRE=Karaoke
TTITLE0=Vince Gill  - What the cowgirls do
TTITLE1=Sammy Kershaw - Haunted heart
TTITLE2=Wynonna Judd - Girls with guitars
TTITLE3=Collin Raye - That was a river
TTITLE4=Lorrie Morgan - Out of your shoes
TTITLE5=Tanya Tucker - Hangin' in
TTITLE6=Tracy Lawerence - Runnin' behind
TTITLE7=John Anderson - I wish I could have been there
TTITLE8=McBride and the Ride - Hurry sundown
TTITLE9=Garth Brooks - Callin' Baton Rouge
TTITLE10=Kathy Mattea - Standing knee deep in a river ( dying of thirst )
TTITLE11=Brooks and Dunn - That ain't no way to go
TTITLE12=Patty Loveless - Can't stop myself from loving you
TTITLE13=Sawyer Brown - Outskirts of town
TTITLE14=Confederate Railroad - Elvis and Andy
EXTD=
EXTT0=
EXTT1=
EXTT2=
EXTT3=
EXTT4=
EXTT5=
EXTT6=
EXTT7=
EXTT8=
EXTT9=
EXTT10=
EXTT11=
EXTT12=
EXTT13=
EXTT14=
PLAYORDER=
